<mxfile host="app.diagrams.net" modified="2023-10-16T06:08:14.008Z" agent="Mozilla/5.0 (Macintosh; Intel Mac OS X 10_15_7) AppleWebKit/537.36 (KHTML, like Gecko) Chrome/117.0.0.0 Safari/537.36" version="22.0.4" etag="Ei0zf5CXIn5sUD-Kp1yv" type="github">
  <diagram name="Page-1" id="0ywGmG5mDtk_4s2kPQd2">
    <mxGraphModel>
      <root>
        <mxCell id="0" />
        <mxCell id="1" parent="0" />
      </root>
    </mxGraphModel>
  </diagram>
</mxfile>
